<!-- SVG ICONS -->
<svg aria-hidden="true" width="24" height="24" fill="currentColor"
    xmlns="http://www.w3.org/2000/svg">

    <!-- HOME -->
    <symbol id="home" viewBox="0 0 24 24">
        <path fill-rule="evenodd"
            d="M11.293 3.293a1 1 0 0 1 1.414 0l6 6 2 2a1 1 0 0 1-1.414 1.414L19 12.414V19a2 2 0 0 1-2 2h-3a1 1 0 0 1-1-1v-3h-2v3a1 1 0 0 1-1 1H7a2 2 0 0 1-2-2v-6.586l-.293.293a1 1 0 0 1-1.414-1.414l2-2 6-6Z"
            clip-rule="evenodd" />
    </symbol>

    <!-- LOCK FILE -->
    <symbol id="lockFile" viewBox="0 0 24 24">
        <path fill-rule="evenodd"
            d="M9 2.221V7H4.221a2 2 0 0 1 .365-.5L8.5 2.586A2 2 0 0 1 9 2.22ZM11 2v5a2 2 0 0 1-2 2H4v11a2 2 0 0 0 2 2h12a2 2 0 0 0 2-2V4a2 2 0 0 0-2-2h-7Zm3 2h2.01v2.01h-2V8h2v2.01h-2V12h2v2.01h-2V16h2v2.01h-2v2H12V18h2v-1.99h-2V14h2v-1.99h-2V10h2V8.01h-2V6h2V4Z"
            clip-rule="evenodd" />
    </symbol>

    <!-- DROP DOWN -->
    <symbol id="drop-down" viewBox="0 0 24 24">
        <path stroke="currentColor" stroke-linecap="round" stroke-linejoin="round" stroke-width="2"
            d="m1 1 4 4 4-4" />
    </symbol>

    <!-- RIGHT ARROW -->
    <symbol id="rightArrow" viewBox="0 0 24 24">
        <path fill-rule="evenodd"
            d="M14.516 6.743c-.41-.368-.443-1-.077-1.41a.99.99 0 0 1 1.405-.078l5.487 4.948.007.006A2.047 2.047 0 0 1 22 11.721a2.06 2.06 0 0 1-.662 1.51l-5.584 5.09a.99.99 0 0 1-1.404-.07 1.003 1.003 0 0 1 .068-1.412l5.578-5.082a.05.05 0 0 0 .015-.036.051.051 0 0 0-.015-.036l-5.48-4.942Zm-6.543 9.199v-.42a4.168 4.168 0 0 0-2.715 2.415c-.154.382-.44.695-.806.88a1.683 1.683 0 0 1-2.167-.571 1.705 1.705 0 0 1-.279-1.092V15.88c0-3.77 2.526-7.039 5.967-7.573V7.57a1.957 1.957 0 0 1 .993-1.838 1.931 1.931 0 0 1 2.153.184l5.08 4.248a.646.646 0 0 1 .012.011l.011.01a2.098 2.098 0 0 1 .703 1.57 2.108 2.108 0 0 1-.726 1.59l-5.08 4.25a1.933 1.933 0 0 1-2.929-.614 1.957 1.957 0 0 1-.217-1.04Z"
            clip-rule="evenodd" />
    </symbol>

    <!-- USERS GROUP -->
    <symbol id="usersGroup" viewBox="0 0 24 24">
        <path fill-rule="evenodd"
            d="M12 6a3.5 3.5 0 1 0 0 7 3.5 3.5 0 0 0 0-7Zm-1.5 8a4 4 0 0 0-4 4 2 2 0 0 0 2 2h7a2 2 0 0 0 2-2 4 4 0 0 0-4-4h-3Zm6.82-3.096a5.51 5.51 0 0 0-2.797-6.293 3.5 3.5 0 1 1 2.796 6.292ZM19.5 18h.5a2 2 0 0 0 2-2 4 4 0 0 0-4-4h-1.1a5.503 5.503 0 0 1-.471.762A5.998 5.998 0 0 1 19.5 18ZM4 7.5a3.5 3.5 0 0 1 5.477-2.889 5.5 5.5 0 0 0-2.796 6.293A3.501 3.501 0 0 1 4 7.5ZM7.1 12H6a4 4 0 0 0-4 4 2 2 0 0 0 2 2h.5a5.998 5.998 0 0 1 3.071-5.238A5.505 5.505 0 0 1 7.1 12Z"
            clip-rule="evenodd" />
    </symbol>

    <!-- DEPARTMENTS -->
    <symbol id="departments" viewBox="0 0 24 24">
        <path fill-rule="evenodd"
            d="M4 4a1 1 0 0 1 1-1h14a1 1 0 1 1 0 2v14a1 1 0 1 1 0 2H5a1 1 0 1 1 0-2V5a1 1 0 0 1-1-1Zm5 2a1 1 0 0 0-1 1v1a1 1 0 0 0 1 1h1a1 1 0 0 0 1-1V7a1 1 0 0 0-1-1H9Zm5 0a1 1 0 0 0-1 1v1a1 1 0 0 0 1 1h1a1 1 0 0 0 1-1V7a1 1 0 0 0-1-1h-1Zm-5 4a1 1 0 0 0-1 1v1a1 1 0 0 0 1 1h1a1 1 0 0 0 1-1v-1a1 1 0 0 0-1-1H9Zm5 0a1 1 0 0 0-1 1v1a1 1 0 0 0 1 1h1a1 1 0 0 0 1-1v-1a1 1 0 0 0-1-1h-1Zm-3 4a2 2 0 0 0-2 2v3h2v-3h2v3h2v-3a2 2 0 0 0-2-2h-2Z"
            clip-rule="evenodd" />
    </symbol>

    <!-- TAG -->
    <symbol id="tagLocation" viewBox="0 0 24 24">
        <path
            d="M18.045 3.007 12.31 3a1.965 1.965 0 0 0-1.4.585l-7.33 7.394a2 2 0 0 0 0 2.805l6.573 6.631a1.957 1.957 0 0 0 1.4.585 1.965 1.965 0 0 0 1.4-.585l7.409-7.477A2 2 0 0 0 21 11.479v-5.5a2.972 2.972 0 0 0-2.955-2.972Zm-2.452 6.438a1 1 0 1 1 0-2 1 1 0 0 1 0 2Z" />
    </symbol>

    <!-- IP FILE -->
    <symbol id="ipFile" viewBox="0 0 24 24">
        <path fill-rule="evenodd"
            d="M9 7V2.221a2 2 0 0 0-.5.365L4.586 6.5a2 2 0 0 0-.365.5H9Zm2 0V2h7a2 2 0 0 1 2 2v16a2 2 0 0 1-2 2H6a2 2 0 0 1-2-2V9h5a2 2 0 0 0 2-2Zm.5 5a1.5 1.5 0 1 0 0 3 1.5 1.5 0 0 0 0-3Zm0 5c.47 0 .917-.092 1.326-.26l1.967 1.967a1 1 0 0 0 1.414-1.414l-1.817-1.818A3.5 3.5 0 1 0 11.5 17Z"
            clip-rule="evenodd" />
    </symbol>

    <!-- EDIT PEN -->
    <symbol id="editPen" viewBox="0 0 24 24">
        <path fill-rule="evenodd"
            d="M11.32 6.176H5c-1.105 0-2 .949-2 2.118v10.588C3 20.052 3.895 21 5 21h11c1.105 0 2-.948 2-2.118v-7.75l-3.914 4.144A2.46 2.46 0 0 1 12.81 16l-2.681.568c-1.75.37-3.292-1.263-2.942-3.115l.536-2.839c.097-.512.335-.983.684-1.352l2.914-3.086Z"
            clip-rule="evenodd" />
        <path fill-rule="evenodd"
            d="M19.846 4.318a2.148 2.148 0 0 0-.437-.692 2.014 2.014 0 0 0-.654-.463 1.92 1.92 0 0 0-1.544 0 2.014 2.014 0 0 0-.654.463l-.546.578 2.852 3.02.546-.579a2.14 2.14 0 0 0 .437-.692 2.244 2.244 0 0 0 0-1.635ZM17.45 8.721 14.597 5.7 9.82 10.76a.54.54 0 0 0-.137.27l-.536 2.84c-.07.37.239.696.588.622l2.682-.567a.492.492 0 0 0 .255-.145l4.778-5.06Z"
            clip-rule="evenodd" />
    </symbol>

    <!-- ADD -->
    <symbol id="addSymbol" viewBox="0 0 24 24">
        <path stroke="currentColor" stroke-linecap="round" stroke-linejoin="round" stroke-width="2"
            d="M5 12h14m-7 7V5" />
    </symbol>

    <!-- TRASH CAN -->
    <symbol id="trashCan" viewBox="0 0 24 24">
        <path fill-rule="evenodd"
            d="M8.586 2.586A2 2 0 0 1 10 2h4a2 2 0 0 1 2 2v2h3a1 1 0 1 1 0 2v12a2 2 0 0 1-2 2H7a2 2 0 0 1-2-2V8a1 1 0 0 1 0-2h3V4a2 2 0 0 1 .586-1.414ZM10 6h4V4h-4v2Zm1 4a1 1 0 1 0-2 0v8a1 1 0 1 0 2 0v-8Zm4 0a1 1 0 1 0-2 0v8a1 1 0 1 0 2 0v-8Z"
            clip-rule="evenodd" />
    </symbol>

    <!-- ARROW REPEAT -->
    <symbol id="arrowRepeat" viewBox="0 0 24 24">
        <path stroke="currentColor" stroke-linecap="round" stroke-linejoin="round"
            stroke-width="2" d="m16 10 3-3m0 0-3-3m3 3H5v3m3 4-3 3m0 0 3 3m-3-3h14v-3" />
    </symbol>

    <!-- EYE -->
    <symbol id="eye" viewBox="0 0 24 24">
        <path fill-rule="evenodd"
            d="M4.998 7.78C6.729 6.345 9.198 5 12 5c2.802 0 5.27 1.345 7.002 2.78a12.713 12.713 0 0 1 2.096 2.183c.253.344.465.682.618.997.14.286.284.658.284 1.04s-.145.754-.284 1.04a6.6 6.6 0 0 1-.618.997 12.712 12.712 0 0 1-2.096 2.183C17.271 17.655 14.802 19 12 19c-2.802 0-5.27-1.345-7.002-2.78a12.712 12.712 0 0 1-2.096-2.183 6.6 6.6 0 0 1-.618-.997C2.144 12.754 2 12.382 2 12s.145-.754.284-1.04c.153-.315.365-.653.618-.997A12.714 12.714 0 0 1 4.998 7.78ZM12 15a3 3 0 1 0 0-6 3 3 0 0 0 0 6Z"
            clip-rule="evenodd" />
    </symbol>

    <!-- PADLOCK -->
    <symbol id="padLock" viewBox="0 0 24 24">
        <path fill-rule="evenodd"
            d="M8 10V7a4 4 0 1 1 8 0v3h1a2 2 0 0 1 2 2v7a2 2 0 0 1-2 2H7a2 2 0 0 1-2-2v-7a2 2 0 0 1 2-2h1Zm2-3a2 2 0 1 1 4 0v3h-4V7Zm2 6a1 1 0 0 1 1 1v3a1 1 0 1 1-2 0v-3a1 1 0 0 1 1-1Z"
            clip-rule="evenodd" />
    </symbol>

    <!-- LOCK TIME -->
    <symbol id="padLockTime" viewBox="0 0 24 24">
        <path fill-rule="evenodd"
            d="M10 5a2 2 0 0 0-2 2v3h2.4A7.48 7.48 0 0 0 8 15.5a7.48 7.48 0 0 0 2.4 5.5H5a2 2 0 0 1-2-2v-7a2 2 0 0 1 2-2h1V7a4 4 0 1 1 8 0v1.15a7.446 7.446 0 0 0-1.943.685A.999.999 0 0 1 12 8.5V7a2 2 0 0 0-2-2Z"
            clip-rule="evenodd" />
        <path fill-rule="evenodd"
            d="M10 15.5a5.5 5.5 0 1 1 11 0 5.5 5.5 0 0 1-11 0Zm6.5-1.5a1 1 0 1 0-2 0v1.5a1 1 0 0 0 .293.707l1 1a1 1 0 0 0 1.414-1.414l-.707-.707V14Z"
            clip-rule="evenodd" />
    </symbol>

    <!-- FILE STORAGE -->
    <symbol id="fileStorage" viewBox="0 0 24 24">
        <path fill-rule="evenodd"
            d="M9 7V2.221a2 2 0 0 0-.5.365L4.586 6.5a2 2 0 0 0-.365.5H9Zm2 0V2h7a2 2 0 0 1 2 2v16a2 2 0 0 1-2 2H6a2 2 0 0 1-2-2V9h5a2 2 0 0 0 2-2Zm-1 9a1 1 0 1 0-2 0v2a1 1 0 1 0 2 0v-2Zm2-5a1 1 0 0 1 1 1v6a1 1 0 1 1-2 0v-6a1 1 0 0 1 1-1Zm4 4a1 1 0 1 0-2 0v3a1 1 0 1 0 2 0v-3Z"
            clip-rule="evenodd" />
    </symbol>

    <!-- CLOCK -->
    <symbol id="clock" viewBox="0 0 24 24">
        <path stroke="currentColor" stroke-linecap="round" stroke-linejoin="round"
            stroke-width="2" d="M12 8v4l3 3m6-3a9 9 0 1 1-18 0 9 9 0 0 1 18 0Z" />
    </symbol>

    <!-- CLOCK ARROW -->
    <symbol id="clockArrow" viewBox="0 0 24 24">
        <path stroke="currentColor" stroke-linecap="round" stroke-linejoin="round"
            stroke-width="2"
            d="M12 8v4l3 3M3.22302 14C4.13247 18.008 7.71683 21 12 21c4.9706 0 9-4.0294 9-9 0-4.97056-4.0294-9-9-9-3.72916 0-6.92858 2.26806-8.29409 5.5M7 9H3V5" />
    </symbol>

    <!-- CLIPBOARD -->
    <symbol id="clipBoard" viewBox="0 0 24 24">
        <path fill-rule="evenodd"
            d="M8 3a1 1 0 0 1 1-1h6a1 1 0 0 1 1 1h2a2 2 0 0 1 2 2v15a2 2 0 0 1-2 2H6a2 2 0 0 1-2-2V5a2 2 0 0 1 2-2h2Zm6 1h-4v2H9a1 1 0 0 0 0 2h6a1 1 0 1 0 0-2h-1V4Zm-6 8a1 1 0 0 1 1-1h6a1 1 0 1 1 0 2H9a1 1 0 0 1-1-1Zm1 3a1 1 0 1 0 0 2h6a1 1 0 1 0 0-2H9Z"
            clip-rule="evenodd" />
    </symbol>

    <!-- ARROW RIGHT -->
    <symbol id="arrowRight" viewBox="0 0 24 24">
        <path stroke="currentColor" stroke-linecap="round" stroke-linejoin="round" stroke-width="2"
            d="M19 12H5m14 0-4 4m4-4-4-4" />
    </symbol>

    <!-- QR CODE -->
    <symbol id="qrCode" viewBox="0 0 24 24">
        <path stroke="currentColor" stroke-linejoin="round" stroke-width="2"
            d="M4 4h6v6H4V4Zm10 10h6v6h-6v-6Zm0-10h6v6h-6V4Zm-4 10h.01v.01H10V14Zm0 4h.01v.01H10V18Zm-3 2h.01v.01H7V20Zm0-4h.01v.01H7V16Zm-3 2h.01v.01H4V18Zm0-4h.01v.01H4V14Z" />
        <path stroke="currentColor" stroke-linejoin="round" stroke-width="2"
            d="M7 7h.01v.01H7V7Zm10 10h.01v.01H17V17Z" />
    </symbol>

    <!-- CALENDAR PEN -->
    <symbol id="calendarPen" viewBox="0 0 24 24">
        <path fill-rule="evenodd"
            d="M12.512 8.72a2.46 2.46 0 0 1 3.479 0 2.461 2.461 0 0 1 0 3.479l-.004.005-1.094 1.08a.998.998 0 0 0-.194-.272l-3-3a1 1 0 0 0-.272-.193l1.085-1.1Zm-2.415 2.445L7.28 14.017a1 1 0 0 0-.289.702v2a1 1 0 0 0 1 1h2a1 1 0 0 0 .703-.288l2.851-2.816a.995.995 0 0 1-.26-.189l-3-3a.998.998 0 0 1-.19-.26Z"
            clip-rule="evenodd" />
        <path fill-rule="evenodd"
            d="M7 3a1 1 0 0 1 1 1v1h3V4a1 1 0 1 1 2 0v1h3V4a1 1 0 1 1 2 0v1h1a2 2 0 0 1 2 2v12a2 2 0 0 1-2 2H5a2 2 0 0 1-2-2V7a2 2 0 0 1 2-2h1V4a1 1 0 0 1 1-1Zm10.67 8H19v8H5v-8h3.855l.53-.537a1 1 0 0 1 .87-.285c.097.015.233.13.277.087.045-.043-.073-.18-.09-.276a1 1 0 0 1 .274-.873l1.09-1.104a3.46 3.46 0 0 1 4.892 0l.001.002A3.461 3.461 0 0 1 17.67 11Z"
            clip-rule="evenodd" />
    </symbol>

    <!-- USER SETTINGS -->
    <symbol id="userSettings" viewBox="0 0 24 24">
        <path fill-rule="evenodd"
            d="M17 10v1.126c.367.095.714.24 1.032.428l.796-.797 1.415 1.415-.797.796c.188.318.333.665.428 1.032H21v2h-1.126c-.095.367-.24.714-.428 1.032l.797.796-1.415 1.415-.796-.797a3.979 3.979 0 0 1-1.032.428V20h-2v-1.126a3.977 3.977 0 0 1-1.032-.428l-.796.797-1.415-1.415.797-.796A3.975 3.975 0 0 1 12.126 16H11v-2h1.126c.095-.367.24-.714.428-1.032l-.797-.796 1.415-1.415.796.797A3.977 3.977 0 0 1 15 11.126V10h2Zm.406 3.578.016.016c.354.358.574.85.578 1.392v.028a2 2 0 0 1-3.409 1.406l-.01-.012a2 2 0 0 1 2.826-2.83ZM5 8a4 4 0 1 1 7.938.703 7.029 7.029 0 0 0-3.235 3.235A4 4 0 0 1 5 8Zm4.29 5H7a4 4 0 0 0-4 4v1a2 2 0 0 0 2 2h6.101A6.979 6.979 0 0 1 9 15c0-.695.101-1.366.29-2Z"
            clip-rule="evenodd" />
    </symbol>

    <!-- USER CONFIG -->
    <symbol id="userConfig" viewBox="0 0 24 24">
        <path fill-rule="evenodd"
            d="M17 10v1.126c.367.095.714.24 1.032.428l.796-.797 1.415 1.415-.797.796c.188.318.333.665.428 1.032H21v2h-1.126c-.095.367-.24.714-.428 1.032l.797.796-1.415 1.415-.796-.797a3.979 3.979 0 0 1-1.032.428V20h-2v-1.126a3.977 3.977 0 0 1-1.032-.428l-.796.797-1.415-1.415.797-.796A3.975 3.975 0 0 1 12.126 16H11v-2h1.126c.095-.367.24-.714.428-1.032l-.797-.796 1.415-1.415.796.797A3.977 3.977 0 0 1 15 11.126V10h2Zm.406 3.578.016.016c.354.358.574.85.578 1.392v.028a2 2 0 0 1-3.409 1.406l-.01-.012a2 2 0 0 1 2.826-2.83ZM5 8a4 4 0 1 1 7.938.703 7.029 7.029 0 0 0-3.235 3.235A4 4 0 0 1 5 8Zm4.29 5H7a4 4 0 0 0-4 4v1a2 2 0 0 0 2 2h6.101A6.979 6.979 0 0 1 9 15c0-.695.101-1.366.29-2Z"
            clip-rule="evenodd" />
    </symbol>

    <!-- BED -->
    <symbol id="bed" viewBox="0 0 24 24">
        <path
            d="M2.535 11A3.981 3.981 0 0 0 2 13v4a1 1 0 0 0 1 1h2v1a1 1 0 1 0 2 0v-1h10v1a1 1 0 1 0 2 0v-1h2a1 1 0 0 0 1-1v-4c0-.729-.195-1.412-.535-2H2.535ZM20 9V8a4 4 0 0 0-4-4h-3v5h7Zm-9-5H8a4 4 0 0 0-4 4v1h7V4Z" />
    </symbol>

    <!-- ARROW (OUT) -->
    <symbol id="archiveArrow" viewBox="0 0 24 24">
        <path fill-rule="evenodd"
            d="M4 4a2 2 0 1 0 0 4h16a2 2 0 1 0 0-4H4Zm0 6h16v8a2 2 0 0 1-2 2H6a2 2 0 0 1-2-2v-8Zm10.707 5.707a1 1 0 0 0-1.414-1.414l-.293.293V12a1 1 0 1 0-2 0v2.586l-.293-.293a1 1 0 0 0-1.414 1.414l2 2a1 1 0 0 0 1.414 0l2-2Z"
            clip-rule="evenodd" />
    </symbol>

    <!-- ADJUSTMENTS -->
    <symbol id="adjustments" viewBox="0 0 24 24">
        <path
            d="M10.83 5a3.001 3.001 0 0 0-5.66 0H4a1 1 0 1 0 0 2h1.17a3.001 3.001 0 0 0 5.66 0H20a1 1 0 1 0 0-2h-9.17ZM4 11h9.17a3.001 3.001 0 0 1 5.66 0H20a1 1 0 1 1 0 2h-1.17a3.001 3.001 0 0 1-5.66 0H4a1 1 0 1 1 0-2Zm1.17 6H4a1 1 0 1 0 0 2h1.17a3.001 3.001 0 0 0 5.66 0H20a1 1 0 1 0 0-2h-9.17a3.001 3.001 0 0 0-5.66 0Z" />
    </symbol>

    <!-- BOOK -->
    <symbol id="book" viewBox="0 0 24 24">
        <path fill-rule="evenodd"
            d="M6 2a2 2 0 0 0-2 2v15a3 3 0 0 0 3 3h12a1 1 0 1 0 0-2h-2v-2h2a1 1 0 0 0 1-1V4a2 2 0 0 0-2-2h-8v16h5v2H7a1 1 0 1 1 0-2h1V2H6Z"
            clip-rule="evenodd" />
    </symbol>

    <!-- FLIPPY DISK -->
    <symbol id="floppyDisk" viewBox="0 0 24 24"> viewBox="0 0 24 24"> <path fill-rule="evenodd"
            d="M5 3a2 2 0 0 0-2 2v14a2 2 0 0 0 2 2h14a2 2 0 0 0 2-2V7.414A2 2 0 0 0 20.414 6L18 3.586A2 2 0 0 0 16.586 3H5Zm10 11a3 3 0 1 1-6 0 3 3 0 0 1 6 0ZM8 7V5h8v2a1 1 0 0 1-1 1H9a1 1 0 0 1-1-1Z"
            clip-rule="evenodd" />
    </symbol>

    <!-- CLIPBOARD LIST -->
    <symbol id="clipboardList" viewBox="0 0 24 24">
        <path fill-rule="evenodd"
            d="M8 3a1 1 0 0 1 1-1h6a1 1 0 0 1 1 1h2a2 2 0 0 1 2 2v15a2 2 0 0 1-2 2H6a2 2 0 0 1-2-2V5a2 2 0 0 1 2-2h2Zm6 1h-4v2H9a1 1 0 0 0 0 2h6a1 1 0 1 0 0-2h-1V4Zm-3 8a1 1 0 0 1 1-1h3a1 1 0 1 1 0 2h-3a1 1 0 0 1-1-1Zm-2-1a1 1 0 1 0 0 2h.01a1 1 0 1 0 0-2H9Zm2 5a1 1 0 0 1 1-1h3a1 1 0 1 1 0 2h-3a1 1 0 0 1-1-1Zm-2-1a1 1 0 1 0 0 2h.01a1 1 0 1 0 0-2H9Z"
            clip-rule="evenodd" />
    </symbol>

    <!-- BELL ACTIVE -->
    <symbol id="bellActive" viewBox="0 0 24 24">
        <path
            d="M11.209 3.816a1 1 0 0 0-1.966.368l.325 1.74a5.338 5.338 0 0 0-2.8 5.762l.276 1.473.055.296c.258 1.374-.228 2.262-.63 2.998-.285.52-.527.964-.437 1.449.11.586.22 1.173.75 1.074l12.7-2.377c.528-.1.418-.685.308-1.27-.103-.564-.636-1.123-1.195-1.711-.606-.636-1.243-1.306-1.404-2.051-.233-1.085-.275-1.387-.303-1.587-.009-.063-.016-.117-.028-.182a5.338 5.338 0 0 0-5.353-4.39l-.298-1.592Z" />
        <path fill-rule="evenodd"
            d="M6.539 4.278a1 1 0 0 1 .07 1.412c-1.115 1.23-1.705 2.605-1.83 4.26a1 1 0 0 1-1.995-.15c.16-2.099.929-3.893 2.342-5.453a1 1 0 0 1 1.413-.069Z"
            clip-rule="evenodd" />
        <path d="M8.95 19.7c.7.8 1.7 1.3 2.8 1.3 1.6 0 2.9-1.1 3.3-2.5l-6.1 1.2Z" />
    </symbol>

    <!-- MAIL BOX -->
    <symbol id="mailBox" viewBox="0 0 24 24">
        <path
            d="M17 6h-2V5h1a1 1 0 1 0 0-2h-2a1 1 0 0 0-1 1v2h-.541A5.965 5.965 0 0 1 14 10v4a1 1 0 1 1-2 0v-4c0-2.206-1.794-4-4-4-.075 0-.148.012-.22.028C7.686 6.022 7.596 6 7.5 6A4.505 4.505 0 0 0 3 10.5V16a1 1 0 0 0 1 1h7v3a1 1 0 0 0 1 1h2a1 1 0 0 0 1-1v-3h5a1 1 0 0 0 1-1v-6c0-2.206-1.794-4-4-4Zm-9 8.5H7a1 1 0 1 1 0-2h1a1 1 0 1 1 0 2Z" />
    </symbol>

    <!-- CHECK -->
    <symbol id="check" viewBox="0 0 24 24" fill="none">
        <path stroke="currentColor" stroke-linecap="round" stroke-linejoin="round"
            stroke-width="2" d="M5 11.917 9.724 16.5 19 7.5" />
    </symbol>

    <!-- X MARK -->
    <symbol id="xMark" viewBox="0 0 24 24">
        <path stroke="currentColor" stroke-linecap="round" stroke-linejoin="round"
            stroke-width="2" d="M6 18 17.94 6M18 18 6.06 6" />
    </symbol>

    <!-- TOOLS -->
    <symbol id="tools" viewBox="0 0 24 24">
        <path fill-rule="evenodd"
            d="M9.586 2.586A2 2 0 0 1 11 2h2a2 2 0 0 1 2 2v.089l.473.196.063-.063a2.002 2.002 0 0 1 2.828 0l1.414 1.414a2 2 0 0 1 0 2.827l-.063.064.196.473H20a2 2 0 0 1 2 2v2a2 2 0 0 1-2 2h-.089l-.196.473.063.063a2.002 2.002 0 0 1 0 2.828l-1.414 1.414a2 2 0 0 1-2.828 0l-.063-.063-.473.196V20a2 2 0 0 1-2 2h-2a2 2 0 0 1-2-2v-.089l-.473-.196-.063.063a2.002 2.002 0 0 1-2.828 0l-1.414-1.414a2 2 0 0 1 0-2.827l.063-.064L4.089 15H4a2 2 0 0 1-2-2v-2a2 2 0 0 1 2-2h.09l.195-.473-.063-.063a2 2 0 0 1 0-2.828l1.414-1.414a2 2 0 0 1 2.827 0l.064.063L9 4.089V4a2 2 0 0 1 .586-1.414ZM8 12a4 4 0 1 1 8 0 4 4 0 0 1-8 0Z"
            clip-rule="evenodd" />
    </symbol>

    <!-- CODE FORK -->
    <symbol id="codeFork" viewBox="0 0 24 24">
        <path fill-rule="evenodd"
            d="M5 6a3 3 0 1 1 4 2.83V10a1 1 0 0 0 1 1h4a1 1 0 0 0 1-1V8.83a3.001 3.001 0 1 1 2 0V10a3 3 0 0 1-3 3h-1v2.17a3.001 3.001 0 1 1-2 0V13h-1a3 3 0 0 1-3-3V8.83A3.001 3.001 0 0 1 5 6Z"
            clip-rule="evenodd" />
    </symbol>

    <!-- CODE PULL -->
    <symbol id="codePull" viewBox="0 0 24 24">
        <path fill-rule="evenodd"
            d="M3 6a3 3 0 1 1 4 2.83v6.34a3.001 3.001 0 1 1-2 0V8.83A3.001 3.001 0 0 1 3 6Zm11.207-2.707a1 1 0 0 1 0 1.414L13.914 5H15a4 4 0 0 1 4 4v6.17a3.001 3.001 0 1 1-2 0V9a2 2 0 0 0-2-2h-1.086l.293.293a1 1 0 0 1-1.414 1.414l-2-2a1 1 0 0 1 0-1.414l2-2a1 1 0 0 1 1.414 0Z"
            clip-rule="evenodd" />
    </symbol>

    <!-- CODE MERGE -->
    <symbol id="codeMerge" viewBox="0 0 24 24">
        <path fill-rule="evenodd"
            d="M5 6a3 3 0 1 1 4 2.83V9a4 4 0 0 0 4 4h.17a3.001 3.001 0 1 1 0 2H13a5.978 5.978 0 0 1-4-1.528v1.699a3.001 3.001 0 1 1-2 0V8.829A3.001 3.001 0 0 1 5 6Z"
            clip-rule="evenodd" />
    </symbol>

    <!-- FILTER -->
    <symbol id="filter" viewBox="0 0 24 24">
        <path
            d="M5.05 3C3.291 3 2.352 5.024 3.51 6.317l5.422 6.059v4.874c0 .472.227.917.613 1.2l3.069 2.25c1.01.742 2.454.036 2.454-1.2v-7.124l5.422-6.059C21.647 5.024 20.708 3 18.95 3H5.05Z" />
    </symbol>

    <!-- PEN -->
    <symbol id="pencil" viewBox="0 0 24 24">
        <path fill-rule="evenodd"
            d="M14 4.182A4.136 4.136 0 0 1 16.9 3c1.087 0 2.13.425 2.899 1.182A4.01 4.01 0 0 1 21 7.037c0 1.068-.43 2.092-1.194 2.849L18.5 11.214l-5.8-5.71 1.287-1.31.012-.012Zm-2.717 2.763L6.186 12.13l2.175 2.141 5.063-5.218-2.141-2.108Zm-6.25 6.886-1.98 5.849a.992.992 0 0 0 .245 1.026 1.03 1.03 0 0 0 1.043.242L10.282 19l-5.25-5.168Zm6.954 4.01 5.096-5.186-2.218-2.183-5.063 5.218 2.185 2.15Z"
            clip-rule="evenodd" />
    </symbol>

    <!-- ADD CARD BACK -->
    <symbol id="addCardBack" viewBox="0 0 24 24">
        <path fill="currentColor"
            d="M2 7c0-1.10457.89543-2 2-2h16c1.1046 0 2 .89543 2 2v4c0 .5523-.4477 1-1 1s-1-.4477-1-1v-1H4v7h10c.5523 0 1 .4477 1 1s-.4477 1-1 1H4c-1.10457 0-2-.8954-2-2V7Z" />
        <path fill="currentColor"
            d="M5 14c0-.5523.44772-1 1-1h2c.55228 0 1 .4477 1 1s-.44772 1-1 1H6c-.55228 0-1-.4477-1-1Zm5 0c0-.5523.4477-1 1-1h4c.5523 0 1 .4477 1 1s-.4477 1-1 1h-4c-.5523 0-1-.4477-1-1Zm9-1c.5523 0 1 .4477 1 1v1h1c.5523 0 1 .4477 1 1s-.4477 1-1 1h-1v1c0 .5523-.4477 1-1 1s-1-.4477-1-1v-1h-1c-.5523 0-1-.4477-1-1s.4477-1 1-1h1v-1c0-.5523.4477-1 1-1Z" />
    </symbol>

    <symbol id="addCardFront" viewBox="0 0 24 24">
        <path fill-rule="evenodd"
            d="M11 16.5a5.5 5.5 0 1 1 11 0 5.5 5.5 0 0 1-11 0Zm4.5 2.5v-1.5H14v-2h1.5V14h2v1.5H19v2h-1.5V19h-2Z"
            clip-rule="evenodd" />
        <path d="M3.987 4A2 2 0 0 0 2 6v9a2 2 0 0 0 2 2h5v-2H4v-5h16V6a2 2 0 0 0-2-2H3.987Z" />
        <path fill-rule="evenodd" d="M5 12a1 1 0 0 1 1-1h3a1 1 0 1 1 0 2H6a1 1 0 0 1-1-1Z"
            clip-rule="evenodd" />
    </symbol>

    <!-- SEE LIST -->
    <symbol id="seeList" viewBox="0 0 24 24">
        <path fill-rule="evenodd"
            d="M2 6a2 2 0 0 1 2-2h16a2 2 0 0 1 2 2v12a2 2 0 0 1-2 2H4a2 2 0 0 1-2-2V6Zm4.996 2a1 1 0 0 0 0 2h.01a1 1 0 1 0 0-2h-.01ZM11 8a1 1 0 1 0 0 2h6a1 1 0 1 0 0-2h-6Zm-4.004 3a1 1 0 1 0 0 2h.01a1 1 0 1 0 0-2h-.01ZM11 11a1 1 0 1 0 0 2h6a1 1 0 1 0 0-2h-6Zm-4.004 3a1 1 0 1 0 0 2h.01a1 1 0 1 0 0-2h-.01ZM11 14a1 1 0 1 0 0 2h6a1 1 0 1 0 0-2h-6Z"
            clip-rule="evenodd" />
    </symbol>

    <symbol id="sharingNodes" viewBox="0 0 24 24">
        <path
            d="M17.5 3a3.5 3.5 0 0 0-3.456 4.06L8.143 9.704a3.5 3.5 0 1 0-.01 4.6l5.91 2.65a3.5 3.5 0 1 0 .863-1.805l-5.94-2.662a3.53 3.53 0 0 0 .002-.961l5.948-2.667A3.5 3.5 0 1 0 17.5 3Z" />
    </symbol>

    <!-- CUBE STACK -->
    <symbol id="cubeStack" viewBox="0 0 24 24">
        <path fill="currentColor"
            d="M11.5039 3.13176c.3074-.17568.6848-.17568.9923 0l3.5554 2.0317L12 7.42604 7.94841 5.16346l3.55549-2.0317Zm-4.50388 3.7928L7 10.2768l-3.15822 1.8047 4.14118 2.205L11 12.5625V9.15832L7.00002 6.92456ZM3 13.8991v3.8152c0 .3588.19229.6902.50386.8682l3.49615 1.9978V16.029L3 13.8991Zm6.00001 6.6812L12 18.866l3 1.7143v-4.5714l-3-1.7143-2.99999 1.7142v4.5715Zm7.99999 0 3.4961-1.9978c.3116-.178.5039-.5094.5039-.8682v-3.8152l-4 2.1299v4.5513Zm3.1582-8.4988L17 10.2768V6.92457l-4 2.23375v3.40418l3.0171 1.724 4.1411-2.205Z" />
    </symbol>

    <symbol id="arrowUpDown" viewBox="0 0 24 24">
            <path stroke="currentColor" stroke-linecap="round" stroke-linejoin="round"
                stroke-width="2" d="M8 20V7m0 13-4-4m4 4 4-4m4-12v13m0-13 4 4m-4-4-4 4" />
    </symbol>
</svg> 