<!-- SVG ICONS -->
<svg aria-hidden="true" width="24" height="24" fill="currentColor"
    xmlns="http://www.w3.org/2000/svg">

    <!-- HOME -->
    <symbol id="home" viewBox="0 0 24 24">
        <path fill-rule="evenodd"
            d="M11.293 3.293a1 1 0 0 1 1.414 0l6 6 2 2a1 1 0 0 1-1.414 1.414L19 12.414V19a2 2 0 0 1-2 2h-3a1 1 0 0 1-1-1v-3h-2v3a1 1 0 0 1-1 1H7a2 2 0 0 1-2-2v-6.586l-.293.293a1 1 0 0 1-1.414-1.414l2-2 6-6Z"
            clip-rule="evenodd" />
    </symbol>

    <!-- LOCK FILE -->
    <symbol id="lockFile" viewBox="0 0 24 24">
        <path fill-rule="evenodd"
            d="M9 2.221V7H4.221a2 2 0 0 1 .365-.5L8.5 2.586A2 2 0 0 1 9 2.22ZM11 2v5a2 2 0 0 1-2 2H4v11a2 2 0 0 0 2 2h12a2 2 0 0 0 2-2V4a2 2 0 0 0-2-2h-7Zm3 2h2.01v2.01h-2V8h2v2.01h-2V12h2v2.01h-2V16h2v2.01h-2v2H12V18h2v-1.99h-2V14h2v-1.99h-2V10h2V8.01h-2V6h2V4Z"
            clip-rule="evenodd" />
    </symbol>

    <!-- DROP DOWN -->
    <symbol id="drop-down" viewBox="0 0 24 24">
        <path stroke="currentColor" stroke-linecap="round" stroke-linejoin="round" stroke-width="2"
            d="m1 1 4 4 4-4" />
    </symbol>

    <!-- RIGHT ARROW -->
    <symbol id="rightArrow" viewBox="0 0 24 24">
        <path fill-rule="evenodd"
            d="M14.516 6.743c-.41-.368-.443-1-.077-1.41a.99.99 0 0 1 1.405-.078l5.487 4.948.007.006A2.047 2.047 0 0 1 22 11.721a2.06 2.06 0 0 1-.662 1.51l-5.584 5.09a.99.99 0 0 1-1.404-.07 1.003 1.003 0 0 1 .068-1.412l5.578-5.082a.05.05 0 0 0 .015-.036.051.051 0 0 0-.015-.036l-5.48-4.942Zm-6.543 9.199v-.42a4.168 4.168 0 0 0-2.715 2.415c-.154.382-.44.695-.806.88a1.683 1.683 0 0 1-2.167-.571 1.705 1.705 0 0 1-.279-1.092V15.88c0-3.77 2.526-7.039 5.967-7.573V7.57a1.957 1.957 0 0 1 .993-1.838 1.931 1.931 0 0 1 2.153.184l5.08 4.248a.646.646 0 0 1 .012.011l.011.01a2.098 2.098 0 0 1 .703 1.57 2.108 2.108 0 0 1-.726 1.59l-5.08 4.25a1.933 1.933 0 0 1-2.929-.614 1.957 1.957 0 0 1-.217-1.04Z"
            clip-rule="evenodd" />
    </symbol>

    <!-- USERS -->
    <symbol id="users" viewBox="0 0 24 24">
        <path
            d="M14 2a3.963 3.963 0 0 0-1.4.267 6.439 6.439 0 0 1-1.331 6.638A4 4 0 1 0 14 2Zm1 9h-1.264A6.957 6.957 0 0 1 15 15v2a2.97 2.97 0 0 1-.184 1H19a1 1 0 0 0 1-1v-1a5.006 5.006 0 0 0-5-5ZM6.5 9a4.5 4.5 0 1 0 0-9 4.5 4.5 0 0 0 0 9ZM8 10H5a5.006 5.006 0 0 0-5 5v2a1 1 0 0 0 1 1h11a1 1 0 0 0 1-1v-2a5.006 5.006 0 0 0-5-5Z" />
    </symbol>

    <!-- DEPARTMENTS -->
    <symbol id="departments" viewBox="0 0 24 24">
        <path fill-rule="evenodd"
            d="M4 4a1 1 0 0 1 1-1h14a1 1 0 1 1 0 2v14a1 1 0 1 1 0 2H5a1 1 0 1 1 0-2V5a1 1 0 0 1-1-1Zm5 2a1 1 0 0 0-1 1v1a1 1 0 0 0 1 1h1a1 1 0 0 0 1-1V7a1 1 0 0 0-1-1H9Zm5 0a1 1 0 0 0-1 1v1a1 1 0 0 0 1 1h1a1 1 0 0 0 1-1V7a1 1 0 0 0-1-1h-1Zm-5 4a1 1 0 0 0-1 1v1a1 1 0 0 0 1 1h1a1 1 0 0 0 1-1v-1a1 1 0 0 0-1-1H9Zm5 0a1 1 0 0 0-1 1v1a1 1 0 0 0 1 1h1a1 1 0 0 0 1-1v-1a1 1 0 0 0-1-1h-1Zm-3 4a2 2 0 0 0-2 2v3h2v-3h2v3h2v-3a2 2 0 0 0-2-2h-2Z"
            clip-rule="evenodd" />
    </symbol>

    <!-- TAG -->
    <symbol id="tagLocation" viewBox="0 0 24 24">
        <path
            d="M18.045 3.007 12.31 3a1.965 1.965 0 0 0-1.4.585l-7.33 7.394a2 2 0 0 0 0 2.805l6.573 6.631a1.957 1.957 0 0 0 1.4.585 1.965 1.965 0 0 0 1.4-.585l7.409-7.477A2 2 0 0 0 21 11.479v-5.5a2.972 2.972 0 0 0-2.955-2.972Zm-2.452 6.438a1 1 0 1 1 0-2 1 1 0 0 1 0 2Z" />
    </symbol>

    <!-- IP FILE -->
    <symbol id="ipFile" viewBox="0 0 24 24">
        <path fill-rule="evenodd"
            d="M9 7V2.221a2 2 0 0 0-.5.365L4.586 6.5a2 2 0 0 0-.365.5H9Zm2 0V2h7a2 2 0 0 1 2 2v16a2 2 0 0 1-2 2H6a2 2 0 0 1-2-2V9h5a2 2 0 0 0 2-2Zm.5 5a1.5 1.5 0 1 0 0 3 1.5 1.5 0 0 0 0-3Zm0 5c.47 0 .917-.092 1.326-.26l1.967 1.967a1 1 0 0 0 1.414-1.414l-1.817-1.818A3.5 3.5 0 1 0 11.5 17Z"
            clip-rule="evenodd" />
    </symbol>

    <!-- EDIT PEN -->
    <symbol id="editPen" viewBox="0 0 24 24">
        <path fill-rule="evenodd"
            d="M11.32 6.176H5c-1.105 0-2 .949-2 2.118v10.588C3 20.052 3.895 21 5 21h11c1.105 0 2-.948 2-2.118v-7.75l-3.914 4.144A2.46 2.46 0 0 1 12.81 16l-2.681.568c-1.75.37-3.292-1.263-2.942-3.115l.536-2.839c.097-.512.335-.983.684-1.352l2.914-3.086Z"
            clip-rule="evenodd" />
        <path fill-rule="evenodd"
            d="M19.846 4.318a2.148 2.148 0 0 0-.437-.692 2.014 2.014 0 0 0-.654-.463 1.92 1.92 0 0 0-1.544 0 2.014 2.014 0 0 0-.654.463l-.546.578 2.852 3.02.546-.579a2.14 2.14 0 0 0 .437-.692 2.244 2.244 0 0 0 0-1.635ZM17.45 8.721 14.597 5.7 9.82 10.76a.54.54 0 0 0-.137.27l-.536 2.84c-.07.37.239.696.588.622l2.682-.567a.492.492 0 0 0 .255-.145l4.778-5.06Z"
            clip-rule="evenodd" />
    </symbol>

    <!-- ADD -->
    <symbol id="addSymbol" viewBox="0 0 24 24">
        <path stroke="currentColor" stroke-linecap="round" stroke-linejoin="round" stroke-width="2"
            d="M5 12h14m-7 7V5" />
    </symbol>

    <!-- TRASH CAN -->
    <symbol id="trashCan" viewBox="0 0 24 24">
        <path fill-rule="evenodd"
            d="M8.586 2.586A2 2 0 0 1 10 2h4a2 2 0 0 1 2 2v2h3a1 1 0 1 1 0 2v12a2 2 0 0 1-2 2H7a2 2 0 0 1-2-2V8a1 1 0 0 1 0-2h3V4a2 2 0 0 1 .586-1.414ZM10 6h4V4h-4v2Zm1 4a1 1 0 1 0-2 0v8a1 1 0 1 0 2 0v-8Zm4 0a1 1 0 1 0-2 0v8a1 1 0 1 0 2 0v-8Z"
            clip-rule="evenodd" />
    </symbol>

    <!-- ARROW REPEAT -->
    <symbol id="arrowRepeat" viewBox="0 0 24 24">
        <path stroke="currentColor" stroke-linecap="round" stroke-linejoin="round"
            stroke-width="2" d="m16 10 3-3m0 0-3-3m3 3H5v3m3 4-3 3m0 0 3 3m-3-3h14v-3" />
    </symbol>

    <!-- EYE -->
    <symbol id="eye" viewBox="0 0 24 24">
        <path fill-rule="evenodd"
            d="M4.998 7.78C6.729 6.345 9.198 5 12 5c2.802 0 5.27 1.345 7.002 2.78a12.713 12.713 0 0 1 2.096 2.183c.253.344.465.682.618.997.14.286.284.658.284 1.04s-.145.754-.284 1.04a6.6 6.6 0 0 1-.618.997 12.712 12.712 0 0 1-2.096 2.183C17.271 17.655 14.802 19 12 19c-2.802 0-5.27-1.345-7.002-2.78a12.712 12.712 0 0 1-2.096-2.183 6.6 6.6 0 0 1-.618-.997C2.144 12.754 2 12.382 2 12s.145-.754.284-1.04c.153-.315.365-.653.618-.997A12.714 12.714 0 0 1 4.998 7.78ZM12 15a3 3 0 1 0 0-6 3 3 0 0 0 0 6Z"
            clip-rule="evenodd" />
    </symbol>

    <!-- PADLOCK -->
    <symbol id="padLock" viewBox="0 0 24 24">
        <path fill-rule="evenodd"
            d="M8 10V7a4 4 0 1 1 8 0v3h1a2 2 0 0 1 2 2v7a2 2 0 0 1-2 2H7a2 2 0 0 1-2-2v-7a2 2 0 0 1 2-2h1Zm2-3a2 2 0 1 1 4 0v3h-4V7Zm2 6a1 1 0 0 1 1 1v3a1 1 0 1 1-2 0v-3a1 1 0 0 1 1-1Z"
            clip-rule="evenodd" />
    </symbol>

    <!-- FILE STORAGE -->
    <symbol id="fileStorage" viewBox="0 0 24 24">
        <path fill-rule="evenodd"
            d="M9 7V2.221a2 2 0 0 0-.5.365L4.586 6.5a2 2 0 0 0-.365.5H9Zm2 0V2h7a2 2 0 0 1 2 2v16a2 2 0 0 1-2 2H6a2 2 0 0 1-2-2V9h5a2 2 0 0 0 2-2Zm-1 9a1 1 0 1 0-2 0v2a1 1 0 1 0 2 0v-2Zm2-5a1 1 0 0 1 1 1v6a1 1 0 1 1-2 0v-6a1 1 0 0 1 1-1Zm4 4a1 1 0 1 0-2 0v3a1 1 0 1 0 2 0v-3Z"
            clip-rule="evenodd" />
    </symbol>

    <!-- CLOCK -->
    <symbol id="clock" viewBox="0 0 24 24">
        <path stroke="currentColor" stroke-linecap="round" stroke-linejoin="round"
            stroke-width="2" d="M12 8v4l3 3m6-3a9 9 0 1 1-18 0 9 9 0 0 1 18 0Z" />
    </symbol>

    <!-- CLOCK ARROW -->
    <symbol id="clockArrow" viewBox="0 0 24 24">
        <path stroke="currentColor" stroke-linecap="round" stroke-linejoin="round"
            stroke-width="2"
            d="M12 8v4l3 3M3.22302 14C4.13247 18.008 7.71683 21 12 21c4.9706 0 9-4.0294 9-9 0-4.97056-4.0294-9-9-9-3.72916 0-6.92858 2.26806-8.29409 5.5M7 9H3V5" />
    </symbol>

    <!-- CLIPBOARD -->
    <symbol id="clipBoard" viewBox="0 0 24 24">
        <path fill-rule="evenodd"
            d="M8 3a1 1 0 0 1 1-1h6a1 1 0 0 1 1 1h2a2 2 0 0 1 2 2v15a2 2 0 0 1-2 2H6a2 2 0 0 1-2-2V5a2 2 0 0 1 2-2h2Zm6 1h-4v2H9a1 1 0 0 0 0 2h6a1 1 0 1 0 0-2h-1V4Zm-6 8a1 1 0 0 1 1-1h6a1 1 0 1 1 0 2H9a1 1 0 0 1-1-1Zm1 3a1 1 0 1 0 0 2h6a1 1 0 1 0 0-2H9Z"
            clip-rule="evenodd" />
    </symbol>

    <!-- ARROW RIGHT -->
    <symbol id="arrowRight" viewBox="0 0 24 24">
        <path stroke="currentColor" stroke-linecap="round" stroke-linejoin="round" stroke-width="2"
            d="M19 12H5m14 0-4 4m4-4-4-4" />
    </symbol>

    <!-- QR CODE -->
    <symbol id="qrCode" viewBox="0 0 24 24">
        <path stroke="currentColor" stroke-linejoin="round" stroke-width="2"
            d="M4 4h6v6H4V4Zm10 10h6v6h-6v-6Zm0-10h6v6h-6V4Zm-4 10h.01v.01H10V14Zm0 4h.01v.01H10V18Zm-3 2h.01v.01H7V20Zm0-4h.01v.01H7V16Zm-3 2h.01v.01H4V18Zm0-4h.01v.01H4V14Z" />
        <path stroke="currentColor" stroke-linejoin="round" stroke-width="2"
            d="M7 7h.01v.01H7V7Zm10 10h.01v.01H17V17Z" />
    </symbol>

    <!-- CALENDAR PEN -->
    <symbol id="calendarPen" viewBox="0 0 24 24">
        <path fill-rule="evenodd"
            d="M12.512 8.72a2.46 2.46 0 0 1 3.479 0 2.461 2.461 0 0 1 0 3.479l-.004.005-1.094 1.08a.998.998 0 0 0-.194-.272l-3-3a1 1 0 0 0-.272-.193l1.085-1.1Zm-2.415 2.445L7.28 14.017a1 1 0 0 0-.289.702v2a1 1 0 0 0 1 1h2a1 1 0 0 0 .703-.288l2.851-2.816a.995.995 0 0 1-.26-.189l-3-3a.998.998 0 0 1-.19-.26Z"
            clip-rule="evenodd" />
        <path fill-rule="evenodd"
            d="M7 3a1 1 0 0 1 1 1v1h3V4a1 1 0 1 1 2 0v1h3V4a1 1 0 1 1 2 0v1h1a2 2 0 0 1 2 2v12a2 2 0 0 1-2 2H5a2 2 0 0 1-2-2V7a2 2 0 0 1 2-2h1V4a1 1 0 0 1 1-1Zm10.67 8H19v8H5v-8h3.855l.53-.537a1 1 0 0 1 .87-.285c.097.015.233.13.277.087.045-.043-.073-.18-.09-.276a1 1 0 0 1 .274-.873l1.09-1.104a3.46 3.46 0 0 1 4.892 0l.001.002A3.461 3.461 0 0 1 17.67 11Z"
            clip-rule="evenodd" />
    </symbol>

    <!-- USER SETTINGS -->
    <symbol id="userSettings" viewBox="0 0 24 24">
        <path fill-rule="evenodd"
            d="M17 10v1.126c.367.095.714.24 1.032.428l.796-.797 1.415 1.415-.797.796c.188.318.333.665.428 1.032H21v2h-1.126c-.095.367-.24.714-.428 1.032l.797.796-1.415 1.415-.796-.797a3.979 3.979 0 0 1-1.032.428V20h-2v-1.126a3.977 3.977 0 0 1-1.032-.428l-.796.797-1.415-1.415.797-.796A3.975 3.975 0 0 1 12.126 16H11v-2h1.126c.095-.367.24-.714.428-1.032l-.797-.796 1.415-1.415.796.797A3.977 3.977 0 0 1 15 11.126V10h2Zm.406 3.578.016.016c.354.358.574.85.578 1.392v.028a2 2 0 0 1-3.409 1.406l-.01-.012a2 2 0 0 1 2.826-2.83ZM5 8a4 4 0 1 1 7.938.703 7.029 7.029 0 0 0-3.235 3.235A4 4 0 0 1 5 8Zm4.29 5H7a4 4 0 0 0-4 4v1a2 2 0 0 0 2 2h6.101A6.979 6.979 0 0 1 9 15c0-.695.101-1.366.29-2Z"
            clip-rule="evenodd" />
    </symbol>

    <!-- BED -->
    <symbol id="bed" viewBox="0 0 24 24">
        <path
            d="M2.535 11A3.981 3.981 0 0 0 2 13v4a1 1 0 0 0 1 1h2v1a1 1 0 1 0 2 0v-1h10v1a1 1 0 1 0 2 0v-1h2a1 1 0 0 0 1-1v-4c0-.729-.195-1.412-.535-2H2.535ZM20 9V8a4 4 0 0 0-4-4h-3v5h7Zm-9-5H8a4 4 0 0 0-4 4v1h7V4Z" />
    </symbol>

    <!-- ARROW ARROW (OUT) -->
    <symbol id="archiveArrow" viewBox="0 0 24 24">
        <path fill-rule="evenodd"
            d="M4 4a2 2 0 1 0 0 4h16a2 2 0 1 0 0-4H4Zm0 6h16v8a2 2 0 0 1-2 2H6a2 2 0 0 1-2-2v-8Zm10.707 5.707a1 1 0 0 0-1.414-1.414l-.293.293V12a1 1 0 1 0-2 0v2.586l-.293-.293a1 1 0 0 0-1.414 1.414l2 2a1 1 0 0 0 1.414 0l2-2Z"
            clip-rule="evenodd" />
    </symbol>

    <!-- ADJUSTMENTS -->
    <symbol id="adjustments" viewBox="0 0 24 24">
        <path
            d="M10.83 5a3.001 3.001 0 0 0-5.66 0H4a1 1 0 1 0 0 2h1.17a3.001 3.001 0 0 0 5.66 0H20a1 1 0 1 0 0-2h-9.17ZM4 11h9.17a3.001 3.001 0 0 1 5.66 0H20a1 1 0 1 1 0 2h-1.17a3.001 3.001 0 0 1-5.66 0H4a1 1 0 1 1 0-2Zm1.17 6H4a1 1 0 1 0 0 2h1.17a3.001 3.001 0 0 0 5.66 0H20a1 1 0 1 0 0-2h-9.17a3.001 3.001 0 0 0-5.66 0Z" />
    </symbol>

    <!-- BOOK -->
    <symbol id="book" viewBox="0 0 24 24">
        <path fill-rule="evenodd"
            d="M6 2a2 2 0 0 0-2 2v15a3 3 0 0 0 3 3h12a1 1 0 1 0 0-2h-2v-2h2a1 1 0 0 0 1-1V4a2 2 0 0 0-2-2h-8v16h5v2H7a1 1 0 1 1 0-2h1V2H6Z"
            clip-rule="evenodd" />
    </symbol>

    <!-- FLIPPY DISK -->
    <symbol id="floppyDisk" viewBox="0 0 24 24"> viewBox="0 0 24 24"> <path fill-rule="evenodd"
            d="M5 3a2 2 0 0 0-2 2v14a2 2 0 0 0 2 2h14a2 2 0 0 0 2-2V7.414A2 2 0 0 0 20.414 6L18 3.586A2 2 0 0 0 16.586 3H5Zm10 11a3 3 0 1 1-6 0 3 3 0 0 1 6 0ZM8 7V5h8v2a1 1 0 0 1-1 1H9a1 1 0 0 1-1-1Z"
            clip-rule="evenodd" />
    </symbol>

    <!-- CLIPBOARD LIST -->
    <symbol id="clipboardList" viewBox="0 0 24 24">
        <path fill-rule="evenodd"
            d="M8 3a1 1 0 0 1 1-1h6a1 1 0 0 1 1 1h2a2 2 0 0 1 2 2v15a2 2 0 0 1-2 2H6a2 2 0 0 1-2-2V5a2 2 0 0 1 2-2h2Zm6 1h-4v2H9a1 1 0 0 0 0 2h6a1 1 0 1 0 0-2h-1V4Zm-3 8a1 1 0 0 1 1-1h3a1 1 0 1 1 0 2h-3a1 1 0 0 1-1-1Zm-2-1a1 1 0 1 0 0 2h.01a1 1 0 1 0 0-2H9Zm2 5a1 1 0 0 1 1-1h3a1 1 0 1 1 0 2h-3a1 1 0 0 1-1-1Zm-2-1a1 1 0 1 0 0 2h.01a1 1 0 1 0 0-2H9Z"
            clip-rule="evenodd" />
    </symbol>
</svg> 